# xmcd
#
# Track frame offsets:
#	150
#	15648
#	28671
#	43869
#	61242
#	73815
#	87888
#	106461
#	120834
#	131907
#	145005
#	156528
#
# Disc length: 2208 seconds
#
# Revision: 1
# Processed by: cddbd v1.5.2PL0 Copyright (c) Steve Scherf et al.
# Submitted via: audiograbber 1.83.01
#
DISCID=a6089e0c
DTITLE=Ella Fitzgerald - Legends
DYEAR=2010
DGENRE=Blues
TTITLE0=The Lady Is A Tramp
TTITLE1=Manhattan
TTITLE2=From This Moment On
TTITLE3=These Foolish Things
TTITLE4=I've Got You Under My Skin
TTITLE5=Night And Day
TTITLE6=I Get A Kick Out Of You
TTITLE7=Basin Street Blues
TTITLE8=Goody, Goody
TTITLE9=Lullaby Of Birdland
TTITLE10=That Old Black Magic
TTITLE11=Lover, Come Back To Me
EXTD=YEAR: 2010
EXTT0=
EXTT1=
EXTT2=
EXTT3=
EXTT4=
EXTT5=
EXTT6=
EXTT7=
EXTT8=
EXTT9=
EXTT10=
EXTT11=
PLAYORDER=
